#!OML:ASF F:\VICON\USERDATA\Patient Classification 1\PLAYGROUND\JustinFriday\JustinFriday.ASF
:FULLY-SPECIFIED
:DEGREES
2955
root 13.3743 26.9366 48.8677 -722.536 -179.168 4.35177
lowerback 20.5669 0.464224 3.56271
upperback 6.35631 0.21704 2.89813
thorax -4.56299 -0.447897 1.06481
lowerneck 1.8066 -0.615032 -4.68357
upperneck -10.0973 -1.12863 2.98309
head -3.56152 -0.64576 1.86282
rclavicle 8.34896e-015 3.37934e-014
rhumerus 94.7321 0.911142 -69.7219
rradius 45.8205
rwrist 18.6231
rhand -22.2501 -13.5461
rfingers 7.12502
rthumb 4.16726 -403.485
lclavicle 8.34896e-015 3.37934e-014
lhumerus 94.1059 8.25763 64.8312
lradius 38.4376
lwrist -18.7835
lhand -5.17455 -8.14338
lfingers 7.12502
lthumb 20.6257 20.7808
rfemur -18.638 4.16359 23.7941
rtibia 30.3939
rfoot -27.5084 -5.62068
rtoes 9.92064
lfemur -15.9332 4.36249 -14.2241
ltibia 27.662
lfoot -26.2817 -3.85721
ltoes 0.835386
2956
root 13.3491 26.9427 48.9316 -722.017 -178.658 4.47277
lowerback 19.8764 0.208898 4.03945
upperback 6.34491 -0.0333399 2.88995
thorax -4.21405 -0.552111 0.833484
lowerneck 1.95371 -0.669728 -4.61048
upperneck -10.5263 -1.23629 2.8939
head -3.73595 -0.706926 1.83385
rclavicle 9.34288e-015 -1.63003e-014
rhumerus 95.2677 0.674727 -69.5009
rradius 44.8198
rwrist 18.3286
rhand -22.7326 -13.3978
rfingers 7.12502
rthumb 3.70136 -403.345
lclavicle 9.34288e-015 -1.63003e-014
lhumerus 94.6457 8.35485 64.6455
lradius 37.4859
lwrist -18.8977
lhand -6.03766 -8.42098
lfingers 7.12502
lthumb 19.7962 20.5909
rfemur -19.4082 3.79145 23.7087
rtibia 30.3123
rfoot -27.4832 -5.39602
rtoes 10.5537
lfemur -16.8162 3.92538 -14.2937
ltibia 27.5827
lfoot -26.1141 -3.81521
ltoes 0.966829
2957
root 13.3488 26.9272 48.9845 -722.192 -179.391 4.50797
lowerback 20.0609 0.540609 3.76805
upperback 6.46224 0.321 2.95483
thorax -4.18281 -0.394739 0.976832
lowerneck 2.18769 -0.591066 -4.55008
upperneck -10.8655 -1.1613 2.78348
head -3.905 -0.672428 1.79304
rclavicle 1.59028e-015 -1.82882e-014
rhumerus 95.6959 0.520553 -69.3267
rradius 43.745
rwrist 18.3066
rhand -23.383 -13.0678
rfingers 7.12502
rthumb 3.07326 -403.025
lclavicle 1.59028e-015 -1.82882e-014
lhumerus 94.998 8.55113 64.1225
lradius 36.4643
lwrist -18.6398
lhand -6.9408 -8.69049
lfingers 7.12502
lthumb 18.9278 20.4086
rfemur -19.4247 4.23596 23.8079
rtibia 30.2639
rfoot -27.3868 -5.1458
rtoes 10.763
lfemur -16.593 4.41245 -14.1871
ltibia 27.4858
lfoot -26.0643 -3.77663
ltoes 1.74521
2958
root 13.3372 26.9059 49.0401 -722.318 -179.413 4.4714
lowerback 20.1406 0.577207 3.71664
upperback 6.56262 0.334004 2.9656
thorax -4.11624 -0.398019 1.01467
lowerneck 2.1698 -0.409825 -4.61773
upperneck -10.9194 -0.92113 2.81108
head -3.93162 -0.553136 1.80646
rclavicle 4.96962e-015 2.94201e-014
rhumerus 96.1647 0.338737 -69.1215
rradius 42.6357
rwrist 18.4679
rhand -24.0482 -12.8818
rfingers 7.12502
rthumb 2.43078 -402.848
lclavicle 4.96962e-015 2.94201e-014
lhumerus 95.3753 8.70519 63.7268
lradius 35.4831
lwrist -18.5076
lhand -7.67523 -8.93079
lfingers 7.12502
lthumb 18.2213 20.2358
rfemur -19.4671 4.13646 23.7405
rtibia 30.194
rfoot -27.2879 -5.15675
rtoes 11.0808
lfemur -16.6099 4.28591 -14.2587
ltibia 27.4085
lfoot -25.7832 -4.10598
ltoes 3.52823
2959
root 13.3233 26.8867 49.1003 -722.511 -179.179 4.41028
lowerback 20.4042 0.500571 3.77002
upperback 6.63657 0.227233 2.94586
thorax -4.17176 -0.461585 0.990994
lowerneck 1.82458 -0.576027 -5.15863
upperneck -9.99511 -1.05797 3.37311
head -3.53484 -0.605199 2.07687
rclavicle -7.35503e-015 -1.94809e-014
rhumerus 96.6797 0.193849 -69.0393
rradius 41.5002
rwrist 18.8631
rhand -24.4066 -12.833
rfingers 7.12502
rthumb 2.08464 -402.803
lclavicle -7.35503e-015 -1.94809e-014
lhumerus 95.883 8.76543 63.5537
lradius 34.4148
lwrist -18.5745
lhand -8.36499 -9.18382
lfingers 7.12502
lthumb 17.5576 20.0434
rfemur -19.4045 4.0243 23.594
rtibia 30.1052
rfoot -27.2456 -5.19796
rtoes 12.2232
lfemur -16.6802 4.09649 -14.389
ltibia 27.4155
lfoot -25.5652 -4.52814
ltoes 4.91836
2960
root 13.318 26.8742 49.1577 -722.632 -179.318 4.31697
lowerback 20.7056 0.578967 3.60435
upperback 6.59621 0.312228 2.94929
thorax -4.37296 -0.424893 1.0732
lowerneck 1.75138 -0.259991 -5.40162
upperneck -9.60416 -0.618727 3.38372
head -3.40802 -0.37032 2.10198
rclavicle 1.78906e-015 -6.36111e-015
rhumerus 97.0476 0.179655 -69.0882
rradius 40.4001
rwrist 19.4018
rhand -24.5289 -12.6876
rfingers 7.12502
rthumb 1.96659 -402.658
lclavicle 1.78906e-015 -6.36111e-015
lhumerus 96.2013 8.67366 63.5815
lradius 33.5284
lwrist -18.778
lhand -8.78848 -9.19325
lfingers 7.12502
lthumb 17.15 20.0699
rfemur -19.4034 4.16442 23.4665
rtibia 29.9828
rfoot -27.1775 -5.20139
rtoes 12.7449
lfemur -16.7648 4.19861 -14.5029
ltibia 27.46
lfoot -25.5563 -4.59503
ltoes 5.31526
2961
root 13.3124 26.8651 49.2146 -722.502 -179.457 4.47237
lowerback 20.6589 0.625719 3.68735
upperback 6.54209 0.401308 3.03593
thorax -4.40575 -0.379816 1.09788
lowerneck 2.35194 -0.614695 -4.92822
upperneck -10.568 -1.17113 3.02099
head -3.83211 -0.662283 1.9389
rclavicle -1.17283e-014 -3.73715e-014
rhumerus 97.4949 0.0257302 -68.8668
rradius 39.223
rwrist 19.6927
rhand -24.7171 -12.4974
rfingers 7.12502
rthumb 1.78475 -402.47
lclavicle -1.17283e-014 -3.73715e-014
lhumerus 96.4875 8.60472 63.6932
lradius 32.7322
lwrist -19.0875
lhand -9.20106 -9.20654
lfingers 7.12502
lthumb 16.7529 20.0907
rfemur -19.6881 4.22677 23.6103
rtibia 29.8502
rfoot -27.0851 -5.18376
rtoes 12.9445
lfemur -17.1522 4.25994 -14.3537
ltibia 27.5226
lfoot -25.6068 -4.34969
ltoes 4.59914
2962
root 13.3049 26.8522 49.2709 -722.526 -179.641 4.71143
lowerback 20.6673 0.705032 3.85442
upperback 6.66934 0.499257 3.13673
thorax -4.26814 -0.346547 1.08734
lowerneck 1.85013 -0.554091 -4.95858
upperneck -10.1963 -1.08289 2.82318
head -3.60765 -0.608185 1.85966
rclavicle 1.37161e-014 3.45885e-014
rhumerus 98.1703 -0.240249 -68.6117
rradius 38.0817
rwrist 19.8697
rhand -24.7939 -12.529
rfingers 7.12502
rthumb 1.71065 -402.502
lclavicle 1.37161e-014 3.45885e-014
lhumerus 97.0776 8.71048 63.667
lradius 31.6861
lwrist -19.3224
lhand -9.80368 -9.50877
lfingers 7.12502
lthumb 16.1727 19.8365
rfemur -19.8265 4.25721 23.8645
rtibia 29.7255
rfoot -27.0068 -5.22653
rtoes 12.8572
lfemur -17.3345 4.4157 -14.1081
ltibia 27.5825
lfoot -25.6647 -4.11935
ltoes 3.64174
2963
root 13.3044 26.8371 49.3222 -722.7 -180.338 4.76005
lowerback 20.8597 -0.69313 2.94684
upperback 6.87971 1.27843 3.03433
thorax -4.2201 1.21338 1.21895
lowerneck 1.61589 -0.374814 -4.98494
upperneck -9.79638 -0.816782 2.79031
head -3.43489 -0.467915 1.83409
rclavicle 9.93923e-016 -1.98785e-015
rhumerus 98.6785 -0.335095 -68.5698
rradius 37.0578
rwrist 19.8977
rhand -24.8131 -12.6585
rfingers 7.12502
rthumb 1.69206 -402.632
lclavicle 9.93923e-016 -1.98785e-015
lhumerus 97.6612 8.69725 63.729
lradius 30.5525
lwrist -19.6633
lhand -10.2558 -9.88349
lfingers 7.12502
lthumb 15.7373 19.4967
rfemur -19.8364 4.5811 23.9888
rtibia 29.6331
rfoot -26.7939 -5.13429
rtoes 12.1064
lfemur -17.1805 4.85545 -14.0075
ltibia 27.6193
lfoot -25.7982 -3.72802
ltoes 3.18258
2964
root 13.2998 26.8245 49.3735 -722.852 -180.526 4.78745
lowerback 21.0638 -0.61194 2.85036
upperback 6.8903 1.38963 3.07965
thorax -4.31674 1.27095 1.29299
lowerneck 1.96493 -0.408099 -4.99842
upperneck -10.1463 -0.878892 2.8844
head -3.62186 -0.504606 1.88118
rclavicle 2.78299e-015 6.36111e-015
rhumerus 99.0261 -0.368108 -68.5134
rradius 36.0347
rwrist 19.9167
rhand -24.983 -12.7707
rfingers 7.12502
rthumb 1.52795 -402.745
lclavicle 2.78299e-015 6.36111e-015
lhumerus 98.1464 8.56611 63.9059
lradius 29.4703
lwrist -20.117
lhand -10.5567 -10.0488
lfingers 7.12502
lthumb 15.4475 19.3539
rfemur -19.8541 4.78403 24.0078
rtibia 29.6249
rfoot -26.6248 -5.15789
rtoes 11.9316
lfemur -17.1229 5.08427 -13.9955
ltibia 27.5964
lfoot -25.8351 -3.55263
ltoes 2.78236
2965
root 13.2909 26.8147 49.4294 -722.947 -180.33 4.83172
lowerback 21.2177 -0.710011 2.9735
upperback 6.92435 1.31412 3.08136
thorax -4.35674 1.24282 1.24143
lowerneck 2.27615 -0.486297 -4.85749
upperneck -10.6492 -1.02163 2.78848
head -3.85267 -0.584097 1.84211
rclavicle 8.94531e-015 2.22639e-014
rhumerus 99.4599 -0.525323 -68.3868
rradius 35.0704
rwrist 20.2161
rhand -24.8573 -13.1609
rfingers 7.12502
rthumb 1.64942 -403.134
lclavicle 8.94531e-015 2.22639e-014
lhumerus 98.709 8.37052 64.2499
lradius 28.491
lwrist -20.7317
lhand -10.8072 -10.0872
lfingers 7.12502
lthumb 15.2062 19.334
rfemur -19.95 4.71737 23.9844
rtibia 29.6599
rfoot -26.555 -5.27538
rtoes 10.8572
lfemur -17.2107 5.11356 -14.0235
ltibia 27.513
lfoot -25.6333 -3.78339
ltoes 3.09958
2966
root 13.2959 26.8002 49.4817 -723.183 -181.074 4.5709
lowerback 21.5917 -0.354449 2.40104
upperback 7.00441 1.68474 3.01665
thorax -4.47326 1.42671 1.40163
lowerneck 2.0861 -0.408942 -4.83146
upperneck -10.2189 -0.882832 2.80812
head -3.66962 -0.509597 1.8282
rclavicle 2.20651e-014 4.05521e-014
rhumerus 99.8335 -0.6878 -68.2954
rradius 34.2254
rwrist 20.4213
rhand -24.571 -13.6496
rfingers 7.12502
rthumb 1.9259 -403.621
lclavicle 2.20651e-014 4.05521e-014
lhumerus 99.2151 8.12848 64.5657
lradius 27.6006
lwrist -21.3823
lhand -11.0364 -10.0121
lfingers 7.12502
lthumb 14.9854 19.4257
rfemur -19.932 5.01863 23.8092
rtibia 29.6513
rfoot -26.4435 -4.97904
rtoes 13.7606
lfemur -16.949 5.17503 -14.1896
ltibia 27.4797
lfoot -25.6292 -3.4702
ltoes 4.25609
2967
root 13.2789 26.7881 49.5298 -723.179 -180.458 4.5763
lowerback 21.5597 -0.620386 2.66358
upperback 7.00499 1.39932 2.99328
thorax -4.44813 1.29286 1.29845
lowerneck 2.03965 -0.46906 -4.69127
upperneck -10.1476 -0.954968 2.76475
head -3.6316 -0.548003 1.78879
rclavicle 6.95746e-015 1.82882e-014
rhumerus 100.218 -0.674203 -68.4142
rradius 33.3424
rwrist 20.545
rhand -24.6871 -13.7181
rfingers 7.12502
rthumb 1.81378 -403.69
lclavicle 6.95746e-015 1.82882e-014
lhumerus 99.7115 8.11196 64.5278
lradius 26.6317
lwrist -21.6594
lhand -11.3852 -9.97798
lfingers 7.12502
lthumb 14.6494 19.4846
rfemur -20.0806 4.56205 23.6933
rtibia 29.6255
rfoot -26.4247 -5.27479
rtoes 14.0471
lfemur -17.2125 3.79594 -14.2586
ltibia 27.4731
lfoot -25.5947 -3.03067
ltoes 5.4494
